<svg width="35" height="35" viewBox="0 0 35 35" fill="none" xmlns="http://www.w3.org/2000/svg">
<g clip-path="url(#clip0_574_2)" filter="url(#filter0_i_574_2)">
<path d="M9.93125 0.319375C10.1362 0.114912 10.4139 6.15103e-05 10.7034 0L24.2966 0C24.5861 6.15103e-05 24.8638 0.114912 25.0688 0.319375L34.6806 9.93125C34.8851 10.1362 34.9999 10.4139 35 10.7034V24.2966C34.9999 24.5861 34.8851 24.8638 34.6806 25.0688L25.0688 34.6806C24.8638 34.8851 24.5861 34.9999 24.2966 35H10.7034C10.4139 34.9999 10.1362 34.8851 9.93125 34.6806L0.319375 25.0688C0.114912 24.8638 6.15103e-05 24.5861 0 24.2966L0 10.7034C6.15103e-05 10.4139 0.114912 10.1362 0.319375 9.93125L9.93125 0.319375ZM11.1562 2.1875L2.1875 11.1562V23.8437L11.1562 32.8125H23.8437L32.8125 23.8437V11.1562L23.8437 2.1875H11.1562Z" fill="#E34421"/>
<path d="M10.1631 10.1631C10.2647 10.0613 10.3854 9.98046 10.5183 9.92532C10.6512 9.87018 10.7936 9.8418 10.9375 9.8418C11.0814 9.8418 11.2238 9.87018 11.3567 9.92532C11.4896 9.98046 11.6103 10.0613 11.7119 10.1631L17.5 15.9534L23.2881 10.1631C23.3898 10.0614 23.5105 9.98077 23.6434 9.92573C23.7763 9.8707 23.9187 9.84237 24.0625 9.84237C24.2063 9.84237 24.3487 9.8707 24.4816 9.92573C24.6145 9.98077 24.7352 10.0614 24.8369 10.1631C24.9386 10.2648 25.0192 10.3855 25.0743 10.5184C25.1293 10.6513 25.1576 10.7937 25.1576 10.9375C25.1576 11.0813 25.1293 11.2237 25.0743 11.3566C25.0192 11.4895 24.9386 11.6102 24.8369 11.7119L19.0466 17.5L24.8369 23.2881C24.9386 23.3898 25.0192 23.5105 25.0743 23.6434C25.1293 23.7763 25.1576 23.9187 25.1576 24.0625C25.1576 24.2063 25.1293 24.3487 25.0743 24.4816C25.0192 24.6145 24.9386 24.7352 24.8369 24.8369C24.7352 24.9386 24.6145 25.0192 24.4816 25.0743C24.3487 25.1293 24.2063 25.1576 24.0625 25.1576C23.9187 25.1576 23.7763 25.1293 23.6434 25.0743C23.5105 25.0192 23.3898 24.9386 23.2881 24.8369L17.5 19.0466L11.7119 24.8369C11.6102 24.9386 11.4895 25.0192 11.3566 25.0743C11.2237 25.1293 11.0813 25.1576 10.9375 25.1576C10.7937 25.1576 10.6513 25.1293 10.5184 25.0743C10.3855 25.0192 10.2648 24.9386 10.1631 24.8369C10.0614 24.7352 9.98077 24.6145 9.92573 24.4816C9.8707 24.3487 9.84237 24.2063 9.84237 24.0625C9.84237 23.9187 9.8707 23.7763 9.92573 23.6434C9.98077 23.5105 10.0614 23.3898 10.1631 23.2881L15.9534 17.5L10.1631 11.7119C10.0613 11.6103 9.98046 11.4896 9.92532 11.3567C9.87018 11.2238 9.8418 11.0814 9.8418 10.9375C9.8418 10.7936 9.87018 10.6512 9.92532 10.5183C9.98046 10.3854 10.0613 10.2647 10.1631 10.1631Z" fill="#E34421"/>
</g>
<defs>
<filter id="filter0_i_574_2" x="-1" y="-1" width="36" height="36" filterUnits="userSpaceOnUse" color-interpolation-filters="sRGB">
<feFlood flood-opacity="0" result="BackgroundImageFix"/>
<feBlend mode="normal" in="SourceGraphic" in2="BackgroundImageFix" result="shape"/>
<feColorMatrix in="SourceAlpha" type="matrix" values="0 0 0 0 0 0 0 0 0 0 0 0 0 0 0 0 0 0 127 0" result="hardAlpha"/>
<feOffset dx="-1" dy="-1"/>
<feGaussianBlur stdDeviation="1"/>
<feComposite in2="hardAlpha" operator="arithmetic" k2="-1" k3="1"/>
<feColorMatrix type="matrix" values="0 0 0 0 0 0 0 0 0 0 0 0 0 0 0 0 0 0 0.25 0"/>
<feBlend mode="normal" in2="shape" result="effect1_innerShadow_574_2"/>
</filter>
<clipPath id="clip0_574_2">
<rect width="35" height="35" fill="white"/>
</clipPath>
</defs>
</svg>
