<svg width="40" height="40" viewBox="0 0 40 40" fill="none" xmlns="http://www.w3.org/2000/svg">
<g filter="url(#filter0_i_538_69)">
<path d="M0.125 8.8875C0.377045 7.78311 0.996638 6.79703 1.8823 6.09077C2.76797 5.38451 3.86721 4.99992 5 5H35C36.1328 4.99992 37.232 5.38451 38.1177 6.09077C39.0034 6.79703 39.623 7.78311 39.875 8.8875L20 21.035L0.125 8.8875ZM0 11.7425V29.5025L14.5075 20.6075L0 11.7425ZM16.9025 22.075L0.4775 32.1425C0.883316 32.9982 1.52382 33.7211 2.32445 34.2269C3.12509 34.7328 4.05294 35.0009 5 35H35C35.9469 35.0002 36.8744 34.7315 37.6746 34.2252C38.4748 33.7189 39.1147 32.9958 39.52 32.14L23.095 22.0725L20 23.965L16.9025 22.075ZM25.4925 20.61L40 29.5025V11.7425L25.4925 20.6075V20.61Z" fill="#FBA31B"/>
</g>
<defs>
<filter id="filter0_i_538_69" x="-2" y="-2" width="42" height="42" filterUnits="userSpaceOnUse" color-interpolation-filters="sRGB">
<feFlood flood-opacity="0" result="BackgroundImageFix"/>
<feBlend mode="normal" in="SourceGraphic" in2="BackgroundImageFix" result="shape"/>
<feColorMatrix in="SourceAlpha" type="matrix" values="0 0 0 0 0 0 0 0 0 0 0 0 0 0 0 0 0 0 127 0" result="hardAlpha"/>
<feOffset dx="-2" dy="-2"/>
<feGaussianBlur stdDeviation="5"/>
<feComposite in2="hardAlpha" operator="arithmetic" k2="-1" k3="1"/>
<feColorMatrix type="matrix" values="0 0 0 0 0 0 0 0 0 0 0 0 0 0 0 0 0 0 0.25 0"/>
<feBlend mode="normal" in2="shape" result="effect1_innerShadow_538_69"/>
</filter>
</defs>
</svg>
