<svg width="43" height="43" viewBox="0 0 43 43" fill="none" xmlns="http://www.w3.org/2000/svg">
<g filter="url(#filter0_i_703_103)">
<path d="M41.6616 5.21371C41.9127 5.46559 42.0537 5.80674 42.0537 6.1624C42.0537 6.51805 41.9127 6.8592 41.6616 7.11108L38.8585 9.91683L33.4835 4.54183L36.2866 1.73608C36.5386 1.48417 36.8803 1.34265 37.2366 1.34265C37.5929 1.34265 37.9347 1.48417 38.1867 1.73608L41.6616 5.21102V5.21371ZM36.9585 11.8142L31.5835 6.43921L13.2735 24.7518C13.1256 24.8997 13.0143 25.0801 12.9483 25.2786L10.7849 31.7662C10.7457 31.8845 10.7401 32.0113 10.7688 32.1326C10.7975 32.2538 10.8594 32.3647 10.9475 32.4528C11.0356 32.541 11.1465 32.6028 11.2678 32.6315C11.389 32.6603 11.5159 32.6547 11.6342 32.6155L18.1218 30.452C18.32 30.3869 18.5004 30.2765 18.6485 30.1295L36.9585 11.8142Z" fill="#9099A6"/>
<path fill-rule="evenodd" clip-rule="evenodd" d="M2.6875 36.2812C2.6875 37.3504 3.11222 38.3758 3.86823 39.1318C4.62423 39.8878 5.6496 40.3125 6.71875 40.3125H36.2812C37.3504 40.3125 38.3758 39.8878 39.1318 39.1318C39.8878 38.3758 40.3125 37.3504 40.3125 36.2812V20.1562C40.3125 19.7999 40.1709 19.4581 39.9189 19.2061C39.6669 18.9541 39.3251 18.8125 38.9688 18.8125C38.6124 18.8125 38.2706 18.9541 38.0186 19.2061C37.7666 19.4581 37.625 19.7999 37.625 20.1562V36.2812C37.625 36.6376 37.4834 36.9794 37.2314 37.2314C36.9794 37.4834 36.6376 37.625 36.2812 37.625H6.71875C6.36237 37.625 6.02058 37.4834 5.76858 37.2314C5.51657 36.9794 5.375 36.6376 5.375 36.2812V6.71875C5.375 6.36237 5.51657 6.02058 5.76858 5.76858C6.02058 5.51657 6.36237 5.375 6.71875 5.375H24.1875C24.5439 5.375 24.8857 5.23343 25.1377 4.98142C25.3897 4.72942 25.5312 4.38763 25.5312 4.03125C25.5312 3.67487 25.3897 3.33308 25.1377 3.08108C24.8857 2.82907 24.5439 2.6875 24.1875 2.6875H6.71875C5.6496 2.6875 4.62423 3.11222 3.86823 3.86823C3.11222 4.62423 2.6875 5.6496 2.6875 6.71875V36.2812Z" fill="#9099A6"/>
</g>
<defs>
<filter id="filter0_i_703_103" x="-4" y="-4" width="47" height="47" filterUnits="userSpaceOnUse" color-interpolation-filters="sRGB">
<feFlood flood-opacity="0" result="BackgroundImageFix"/>
<feBlend mode="normal" in="SourceGraphic" in2="BackgroundImageFix" result="shape"/>
<feColorMatrix in="SourceAlpha" type="matrix" values="0 0 0 0 0 0 0 0 0 0 0 0 0 0 0 0 0 0 127 0" result="hardAlpha"/>
<feMorphology radius="1" operator="erode" in="SourceAlpha" result="effect1_innerShadow_703_103"/>
<feOffset dx="-4" dy="-4"/>
<feGaussianBlur stdDeviation="5"/>
<feComposite in2="hardAlpha" operator="arithmetic" k2="-1" k3="1"/>
<feColorMatrix type="matrix" values="0 0 0 0 0 0 0 0 0 0 0 0 0 0 0 0 0 0 0.25 0"/>
<feBlend mode="normal" in2="shape" result="effect1_innerShadow_703_103"/>
</filter>
</defs>
</svg>
