<svg width="331" height="60" viewBox="0 0 331 60" fill="none" xmlns="http://www.w3.org/2000/svg">
<g filter="url(#filter0_i_538_54)">
<path d="M0.302557 47V3.36364H30.7287V11.929H10.8494V20.8778H29.1733V29.4645H10.8494V38.4347H30.7287V47H0.302557ZM46.1974 14.2727L51.5881 25.054L57.1705 14.2727H67.6747L58.5341 30.6364L68.0156 47H57.5966L51.5881 36.1335L45.7287 47H35.1605L44.6634 30.6364L35.6293 14.2727H46.1974ZM72.4315 59.2727V14.2727H82.744V19.8764H83.0636C83.4897 18.8821 84.0934 17.9233 84.8746 17C85.6701 16.0767 86.6786 15.3239 87.9002 14.7415C89.136 14.1449 90.6133 13.8466 92.332 13.8466C94.6048 13.8466 96.7283 14.4432 98.7028 15.6364C100.691 16.8295 102.297 18.669 103.518 21.1548C104.74 23.6406 105.35 26.8082 105.35 30.6577C105.35 34.3651 104.761 37.4688 103.582 39.9688C102.417 42.4688 100.841 44.3438 98.8519 45.5938C96.8775 46.8438 94.6829 47.4688 92.2681 47.4688C90.6204 47.4688 89.1928 47.1989 87.9854 46.6591C86.7781 46.1193 85.7624 45.4091 84.9386 44.5284C84.1289 43.6477 83.5039 42.7031 83.0636 41.6946H82.8505V59.2727H72.4315ZM82.6374 30.6364C82.6374 32.3977 82.8718 33.9318 83.3406 35.2386C83.8235 36.5455 84.5124 37.5611 85.4073 38.2855C86.3164 38.9957 87.4031 39.3509 88.6673 39.3509C89.9457 39.3509 91.0323 38.9957 91.9272 38.2855C92.8221 37.5611 93.4968 36.5455 93.9514 35.2386C94.4201 33.9318 94.6545 32.3977 94.6545 30.6364C94.6545 28.875 94.4201 27.348 93.9514 26.0554C93.4968 24.7628 92.8221 23.7614 91.9272 23.0511C91.0465 22.3409 89.9599 21.9858 88.6673 21.9858C87.3889 21.9858 86.3022 22.3338 85.4073 23.0298C84.5124 23.7259 83.8235 24.7202 83.3406 26.0128C82.8718 27.3054 82.6374 28.8466 82.6374 30.6364ZM126.109 47.6179C122.685 47.6179 119.731 46.9432 117.245 45.5938C114.773 44.2301 112.87 42.2912 111.535 39.777C110.214 37.2486 109.553 34.2443 109.553 30.7642C109.553 27.3835 110.221 24.429 111.556 21.9006C112.891 19.358 114.773 17.3835 117.202 15.9773C119.631 14.5568 122.494 13.8466 125.789 13.8466C128.119 13.8466 130.249 14.2088 132.181 14.9332C134.113 15.6577 135.782 16.7301 137.188 18.1506C138.594 19.571 139.688 21.3253 140.469 23.4134C141.251 25.4872 141.641 27.8665 141.641 30.5511V33.1506H113.197V27.0994H131.947C131.933 25.9915 131.67 25.0043 131.158 24.1378C130.647 23.2713 129.944 22.5966 129.049 22.1136C128.168 21.6165 127.153 21.3679 126.002 21.3679C124.837 21.3679 123.793 21.6307 122.87 22.1562C121.947 22.6676 121.215 23.3707 120.675 24.2656C120.136 25.1463 119.852 26.1477 119.823 27.2699V33.4276C119.823 34.7628 120.086 35.9347 120.612 36.9432C121.137 37.9375 121.883 38.7116 122.849 39.2656C123.815 39.8196 124.965 40.0966 126.3 40.0966C127.224 40.0966 128.062 39.9687 128.815 39.7131C129.567 39.4574 130.214 39.081 130.754 38.5838C131.293 38.0866 131.698 37.4759 131.968 36.7514L141.535 37.0284C141.137 39.1733 140.263 41.0412 138.914 42.6321C137.579 44.2088 135.825 45.4375 133.651 46.3182C131.478 47.1847 128.964 47.6179 126.109 47.6179ZM146.963 47V14.2727H157.083V20.2386H157.424C158.021 18.0795 158.994 16.4744 160.343 15.4233C161.693 14.358 163.262 13.8253 165.052 13.8253C165.535 13.8253 166.032 13.8608 166.544 13.9318C167.055 13.9886 167.531 14.081 167.971 14.2088V23.2642C167.474 23.0937 166.821 22.9588 166.011 22.8594C165.216 22.7599 164.505 22.7102 163.88 22.7102C162.645 22.7102 161.529 22.9872 160.535 23.5412C159.555 24.081 158.781 24.8409 158.213 25.821C157.659 26.7869 157.382 27.9233 157.382 29.2301V47H146.963ZM172.217 47V14.2727H182.636V47H172.217ZM177.437 10.4588C175.974 10.4588 174.717 9.97585 173.665 9.00994C172.614 8.02983 172.089 6.85085 172.089 5.47301C172.089 4.10937 172.614 2.9446 173.665 1.97869C174.717 0.998578 175.974 0.50852 177.437 0.50852C178.914 0.50852 180.171 0.998578 181.208 1.97869C182.259 2.9446 182.785 4.10937 182.785 5.47301C182.785 6.85085 182.259 8.02983 181.208 9.00994C180.171 9.97585 178.914 10.4588 177.437 10.4588ZM204.566 47.6179C201.142 47.6179 198.188 46.9432 195.702 45.5938C193.23 44.2301 191.327 42.2912 189.992 39.777C188.671 37.2486 188.01 34.2443 188.01 30.7642C188.01 27.3835 188.678 24.429 190.013 21.9006C191.348 19.358 193.23 17.3835 195.659 15.9773C198.088 14.5568 200.951 13.8466 204.246 13.8466C206.576 13.8466 208.706 14.2088 210.638 14.9332C212.57 15.6577 214.239 16.7301 215.645 18.1506C217.051 19.571 218.145 21.3253 218.926 23.4134C219.708 25.4872 220.098 27.8665 220.098 30.5511V33.1506H191.654V27.0994H210.404C210.39 25.9915 210.127 25.0043 209.615 24.1378C209.104 23.2713 208.401 22.5966 207.506 22.1136C206.625 21.6165 205.61 21.3679 204.459 21.3679C203.294 21.3679 202.25 21.6307 201.327 22.1562C200.404 22.6676 199.672 23.3707 199.132 24.2656C198.593 25.1463 198.309 26.1477 198.28 27.2699V33.4276C198.28 34.7628 198.543 35.9347 199.069 36.9432C199.594 37.9375 200.34 38.7116 201.306 39.2656C202.272 39.8196 203.422 40.0966 204.757 40.0966C205.681 40.0966 206.519 39.9687 207.272 39.7131C208.025 39.4574 208.671 39.081 209.211 38.5838C209.75 38.0866 210.155 37.4759 210.425 36.7514L219.992 37.0284C219.594 39.1733 218.721 41.0412 217.371 42.6321C216.036 44.2088 214.282 45.4375 212.108 46.3182C209.935 47.1847 207.421 47.6179 204.566 47.6179ZM235.839 28.3352V47H225.42V14.2727H235.327V20.2812H235.69C236.414 18.2784 237.65 16.7088 239.397 15.5724C241.144 14.4219 243.225 13.8466 245.64 13.8466C247.941 13.8466 249.937 14.3651 251.627 15.402C253.332 16.4247 254.653 17.8594 255.59 19.706C256.542 21.5384 257.011 23.6832 256.996 26.1406V47H246.577V28.1861C246.592 26.3679 246.13 24.9474 245.192 23.9247C244.269 22.902 242.984 22.3906 241.336 22.3906C240.242 22.3906 239.276 22.6321 238.438 23.1151C237.614 23.5838 236.975 24.2585 236.521 25.1392C236.08 26.0199 235.853 27.0852 235.839 28.3352ZM278.724 47.6179C275.272 47.6179 272.311 46.9077 269.839 45.4872C267.382 44.0668 265.493 42.0923 264.172 39.5639C262.85 37.0213 262.19 34.081 262.19 30.7429C262.19 27.3906 262.85 24.4503 264.172 21.9219C265.507 19.3793 267.403 17.3977 269.86 15.9773C272.332 14.5568 275.279 13.8466 278.703 13.8466C281.728 13.8466 284.363 14.3935 286.608 15.4872C288.866 16.581 290.627 18.1293 291.892 20.1321C293.17 22.1207 293.845 24.4574 293.916 27.142H284.179C283.98 25.4659 283.412 24.152 282.474 23.2003C281.551 22.2486 280.343 21.7727 278.852 21.7727C277.645 21.7727 276.586 22.1136 275.677 22.7955C274.768 23.4631 274.058 24.4574 273.547 25.7784C273.049 27.0852 272.801 28.7045 272.801 30.6364C272.801 32.5682 273.049 34.2017 273.547 35.5369C274.058 36.858 274.768 37.8594 275.677 38.5412C276.586 39.2088 277.645 39.5426 278.852 39.5426C279.818 39.5426 280.67 39.3366 281.409 38.9247C282.162 38.5128 282.779 37.9091 283.262 37.1136C283.745 36.304 284.051 35.3239 284.179 34.1733H293.916C293.816 36.8722 293.142 39.2301 291.892 41.2472C290.656 43.2642 288.916 44.8338 286.672 45.956C284.441 47.0639 281.792 47.6179 278.724 47.6179ZM314.546 47.6179C311.123 47.6179 308.168 46.9432 305.683 45.5938C303.211 44.2301 301.308 42.2912 299.972 39.777C298.651 37.2486 297.991 34.2443 297.991 30.7642C297.991 27.3835 298.658 24.429 299.994 21.9006C301.329 19.358 303.211 17.3835 305.64 15.9773C308.069 14.5568 310.931 13.8466 314.227 13.8466C316.556 13.8466 318.687 14.2088 320.619 14.9332C322.55 15.6577 324.219 16.7301 325.626 18.1506C327.032 19.571 328.126 21.3253 328.907 23.4134C329.688 25.4872 330.079 27.8665 330.079 30.5511V33.1506H301.634V27.0994H320.384C320.37 25.9915 320.107 25.0043 319.596 24.1378C319.085 23.2713 318.381 22.5966 317.487 22.1136C316.606 21.6165 315.59 21.3679 314.44 21.3679C313.275 21.3679 312.231 21.6307 311.308 22.1562C310.384 22.6676 309.653 23.3707 309.113 24.2656C308.573 25.1463 308.289 26.1477 308.261 27.2699V33.4276C308.261 34.7628 308.523 35.9347 309.049 36.9432C309.575 37.9375 310.32 38.7116 311.286 39.2656C312.252 39.8196 313.403 40.0966 314.738 40.0966C315.661 40.0966 316.499 39.9687 317.252 39.7131C318.005 39.4574 318.651 39.081 319.191 38.5838C319.731 38.0866 320.136 37.4759 320.406 36.7514L329.972 37.0284C329.575 39.1733 328.701 41.0412 327.352 42.6321C326.016 44.2088 324.262 45.4375 322.089 46.3182C319.915 47.1847 317.401 47.6179 314.546 47.6179Z" fill="#FBA31B"/>
</g>
<defs>
<filter id="filter0_i_538_54" x="-1.69751" y="-1.49146" width="331.776" height="60.7642" filterUnits="userSpaceOnUse" color-interpolation-filters="sRGB">
<feFlood flood-opacity="0" result="BackgroundImageFix"/>
<feBlend mode="normal" in="SourceGraphic" in2="BackgroundImageFix" result="shape"/>
<feColorMatrix in="SourceAlpha" type="matrix" values="0 0 0 0 0 0 0 0 0 0 0 0 0 0 0 0 0 0 127 0" result="hardAlpha"/>
<feOffset dx="-2" dy="-2"/>
<feGaussianBlur stdDeviation="5"/>
<feComposite in2="hardAlpha" operator="arithmetic" k2="-1" k3="1"/>
<feColorMatrix type="matrix" values="0 0 0 0 0 0 0 0 0 0 0 0 0 0 0 0 0 0 0.25 0"/>
<feBlend mode="normal" in2="shape" result="effect1_innerShadow_538_54"/>
</filter>
</defs>
</svg>
