<svg width="197" height="58" viewBox="0 0 197 58" fill="none" xmlns="http://www.w3.org/2000/svg">
<g filter="url(#filter0_i_538_54)">
<path d="M24.8892 14.446C24.7472 12.8835 24.1151 11.669 22.9929 10.8026C21.8849 9.92188 20.3011 9.48153 18.2415 9.48153C16.8778 9.48153 15.7415 9.65909 14.8324 10.0142C13.9233 10.3693 13.2415 10.8594 12.7869 11.4844C12.3324 12.0952 12.098 12.7983 12.0838 13.5938C12.0554 14.2472 12.1832 14.8224 12.4673 15.3196C12.7656 15.8168 13.1918 16.2571 13.7457 16.6406C14.3139 17.0099 14.9957 17.3366 15.7912 17.6207C16.5866 17.9048 17.4815 18.1534 18.4759 18.3665L22.2259 19.2188C24.3849 19.6875 26.2884 20.3125 27.9361 21.0938C29.598 21.875 30.9901 22.8054 32.1122 23.8849C33.2486 24.9645 34.108 26.2074 34.6903 27.6136C35.2727 29.0199 35.571 30.5966 35.5852 32.3438C35.571 35.0994 34.875 37.4645 33.4972 39.4389C32.1193 41.4134 30.1378 42.9261 27.5526 43.9773C24.9815 45.0284 21.8778 45.554 18.2415 45.554C14.5909 45.554 11.4091 45.0071 8.69602 43.9134C5.98295 42.8196 3.87358 41.1577 2.3679 38.9276C0.862216 36.6974 0.0880682 33.8778 0.0454546 30.4688H10.1449C10.2301 31.875 10.6065 33.0469 11.2741 33.9844C11.9418 34.9219 12.858 35.6321 14.0227 36.1151C15.2017 36.598 16.5653 36.8395 18.1136 36.8395C19.5341 36.8395 20.7415 36.6477 21.7358 36.2642C22.7443 35.8807 23.5185 35.348 24.0582 34.6662C24.598 33.9844 24.875 33.2031 24.8892 32.3224C24.875 31.4986 24.6193 30.7955 24.1222 30.2131C23.625 29.6165 22.858 29.1051 21.821 28.679C20.7983 28.2386 19.4915 27.8338 17.9006 27.4645L13.3409 26.3991C9.5625 25.5327 6.58665 24.1335 4.41335 22.2017C2.24006 20.2557 1.16051 17.6278 1.17472 14.3182C1.16051 11.6193 1.88494 9.25426 3.34801 7.22301C4.81108 5.19176 6.83523 3.60795 9.42046 2.47159C12.0057 1.33523 14.9531 0.767044 18.2628 0.767044C21.6435 0.767044 24.5767 1.34233 27.0625 2.4929C29.5625 3.62926 31.5014 5.22727 32.8793 7.28693C34.2571 9.34659 34.9602 11.733 34.9886 14.446H24.8892ZM65.3849 12.2727V19.9432H44.7386V12.2727H65.3849ZM49.0639 4.43182H59.483V34.7088C59.483 35.348 59.5824 35.8665 59.7812 36.2642C59.9943 36.6477 60.2997 36.9247 60.6974 37.0952C61.0952 37.2514 61.571 37.3295 62.125 37.3295C62.5227 37.3295 62.9418 37.294 63.3821 37.223C63.8366 37.1378 64.1776 37.0668 64.4048 37.0099L65.9815 44.5312C65.4844 44.6733 64.7813 44.8509 63.8722 45.0639C62.9773 45.277 61.9048 45.4119 60.6548 45.4688C58.2116 45.5824 56.1165 45.2983 54.3693 44.6165C52.6364 43.9205 51.3082 42.8409 50.3849 41.3778C49.4759 39.9148 49.0355 38.0753 49.0639 35.8594V4.43182ZM97.8161 30.8736V12.2727H108.214V45H98.2848V38.9062H97.9439C97.2195 40.9091 95.9837 42.5 94.2365 43.679C92.5036 44.8437 90.4084 45.4261 87.951 45.4261C85.7209 45.4261 83.7607 44.9148 82.0703 43.892C80.38 42.8693 79.0661 41.4418 78.1286 39.6094C77.1911 37.7628 76.7152 35.6037 76.701 33.1321V12.2727H87.12V31.0866C87.1342 32.8622 87.603 34.2614 88.5263 35.2841C89.4496 36.3068 90.7067 36.8182 92.2976 36.8182C93.3345 36.8182 94.2649 36.5909 95.0888 36.1364C95.9268 35.6676 96.5874 34.9929 97.0703 34.1122C97.5675 33.2173 97.8161 32.1378 97.8161 30.8736ZM132.799 45.4688C130.384 45.4688 128.189 44.8438 126.215 43.5938C124.24 42.3438 122.664 40.4688 121.485 37.9688C120.306 35.4688 119.716 32.3651 119.716 28.6577C119.716 24.8082 120.327 21.6406 121.549 19.1548C122.77 16.669 124.368 14.8295 126.343 13.6364C128.331 12.4432 130.469 11.8466 132.756 11.8466C134.475 11.8466 135.945 12.1449 137.167 12.7415C138.388 13.3239 139.397 14.0767 140.192 15C140.988 15.9233 141.591 16.8821 142.003 17.8764H142.216V1.36364H152.635V45H142.323V39.6946H142.003C141.563 40.7031 140.938 41.6477 140.128 42.5284C139.319 43.4091 138.303 44.1193 137.081 44.6591C135.874 45.1989 134.446 45.4688 132.799 45.4688ZM136.421 37.3509C137.685 37.3509 138.765 36.9957 139.659 36.2855C140.554 35.5611 141.243 34.5455 141.726 33.2386C142.209 31.9318 142.451 30.3977 142.451 28.6364C142.451 26.8466 142.209 25.3054 141.726 24.0128C141.257 22.7202 140.569 21.7259 139.659 21.0298C138.765 20.3338 137.685 19.9858 136.421 19.9858C135.128 19.9858 134.034 20.3409 133.14 21.0511C132.245 21.7614 131.563 22.7628 131.094 24.0554C130.64 25.348 130.412 26.875 130.412 28.6364C130.412 30.3977 130.647 31.9318 131.115 33.2386C131.584 34.5455 132.259 35.5611 133.14 36.2855C134.034 36.9957 135.128 37.3509 136.421 37.3509ZM171.595 57.2727C170.345 57.2727 169.166 57.1733 168.058 56.9744C166.95 56.7898 165.999 56.5412 165.203 56.2287L167.504 48.6648C168.527 49.0057 169.45 49.2045 170.274 49.2614C171.112 49.3182 171.83 49.1832 172.426 48.8565C173.037 48.544 173.506 47.983 173.832 47.1733L174.237 46.1932L162.604 12.2727H173.513L179.543 35.625H179.884L185.999 12.2727H196.972L184.635 48.1321C184.038 49.9219 183.193 51.4986 182.099 52.8622C181.02 54.2401 179.621 55.3196 177.902 56.1009C176.197 56.8821 174.095 57.2727 171.595 57.2727Z" fill="#FBA31B"/>
</g>
<defs>
<filter id="filter0_i_538_54" x="-1.95459" y="-1.23291" width="198.926" height="58.5056" filterUnits="userSpaceOnUse" color-interpolation-filters="sRGB">
<feFlood flood-opacity="0" result="BackgroundImageFix"/>
<feBlend mode="normal" in="SourceGraphic" in2="BackgroundImageFix" result="shape"/>
<feColorMatrix in="SourceAlpha" type="matrix" values="0 0 0 0 0 0 0 0 0 0 0 0 0 0 0 0 0 0 127 0" result="hardAlpha"/>
<feOffset dx="-2" dy="-2"/>
<feGaussianBlur stdDeviation="5"/>
<feComposite in2="hardAlpha" operator="arithmetic" k2="-1" k3="1"/>
<feColorMatrix type="matrix" values="0 0 0 0 0 0 0 0 0 0 0 0 0 0 0 0 0 0 0.25 0"/>
<feBlend mode="normal" in2="shape" result="effect1_innerShadow_538_54"/>
</filter>
</defs>
</svg>
